HIERARCHY
ROOT Hips
{
  OFFSET -34.0595 37.9216 24.9081
  CHANNELS 6 Xposition Yposition Zposition Zrotation Xrotation Yrotation
  JOINT LeftHip
  {
    OFFSET 3.43 7.79598e-014 -1.17593e-013
    CHANNELS 6 Xposition Yposition Zposition Zrotation Xrotation Yrotation
    JOINT LeftKnee
    {
      OFFSET 1.3119e-012 -18.47 7.25765e-012
      CHANNELS 6 Xposition Yposition Zposition Zrotation Xrotation Yrotation
      JOINT LeftAnkle
      {
        OFFSET 2.13163e-014 -17.95 -2.64129e-012
        CHANNELS 6 Xposition Yposition Zposition Zrotation Xrotation Yrotation
        End Site
        {
          OFFSET 0 -3.12 0
        }
      }
    }
  }
  JOINT RightHip
  {
    OFFSET -3.43 3.25873e-013 -8.81214e-013
    CHANNELS 6 Xposition Yposition Zposition Zrotation Xrotation Yrotation
    JOINT RightKnee
    {
      OFFSET 2.00953e-013 -18.47 4.44089e-014
      CHANNELS 6 Xposition Yposition Zposition Zrotation Xrotation Yrotation
      JOINT RightAnkle
      {
        OFFSET -5.17844e-012 -17.95 -1.97132e-013
        CHANNELS 6 Xposition Yposition Zposition Zrotation Xrotation Yrotation
        End Site
        {
          OFFSET 0 -3.12 0
        }
      }
    }
  }
  JOINT Chest
  {
    OFFSET 1.25223e-013 4.57 4.43396e-013
    CHANNELS 6 Xposition Yposition Zposition Zrotation Xrotation Yrotation
    JOINT Chest2
    {
      OFFSET 4.82271e-013 6.57 2.74318e-013
      CHANNELS 6 Xposition Yposition Zposition Zrotation Xrotation Yrotation
      JOINT LeftCollar
      {
        OFFSET 1.06 4.19 1.76
        CHANNELS 6 Xposition Yposition Zposition Zrotation Xrotation Yrotation
        JOINT LeftShoulder
        {
          OFFSET 5.81 3.4064e-013 -2.38274e-012
          CHANNELS 6 Xposition Yposition Zposition Zrotation Xrotation Yrotation
          JOINT LeftElbow
          {
            OFFSET -2.47959e-012 -12.08 -1.0553e-012
            CHANNELS 6 Xposition Yposition Zposition Zrotation Xrotation Yrotation
            JOINT LeftWrist
            {
              OFFSET 2.84217e-014 -9.82 6.39488e-014
              CHANNELS 6 Xposition Yposition Zposition Zrotation Xrotation Yrotation
              End Site
              {
                OFFSET 0 -7.37 0
              }
            }
          }
        }
      }
      JOINT RightCollar
      {
        OFFSET -1.06 4.19 1.76
        CHANNELS 6 Xposition Yposition Zposition Zrotation Xrotation Yrotation
        JOINT RightShoulder
        {
          OFFSET -6.06 -4.27918e-012 -1.63741e-012
          CHANNELS 6 Xposition Yposition Zposition Zrotation Xrotation Yrotation
          JOINT RightElbow
          {
            OFFSET 6.94285e-013 -11.08 -1.83449e-012
            CHANNELS 6 Xposition Yposition Zposition Zrotation Xrotation Yrotation
            JOINT RightWrist
            {
              OFFSET -7.10543e-015 -9.82 1.77636e-014
              CHANNELS 6 Xposition Yposition Zposition Zrotation Xrotation Yrotation
              End Site
              {
                OFFSET 0 -7.14001 0
              }
            }
          }
        }
      }
      JOINT Neck
      {
        OFFSET -3.16819e-012 4.05 9.76996e-015
        CHANNELS 6 Xposition Yposition Zposition Zrotation Xrotation Yrotation
        JOINT Head
        {
          OFFSET -5.32907e-015 5.19 -1.77636e-015
          CHANNELS 6 Xposition Yposition Zposition Zrotation Xrotation Yrotation
          End Site
          {
            OFFSET 0 4.14001 0
          }
        }
      }
    }
  }
}
MOTION
Frames:	10
Frame Time:	0.0333333
12.9368 38.1163 24.7811 1.8989 -3.81875 94.3206 3.43 1.99757e-013 6.32377e-013 7.02748 -19.7479 10.1838 6.59139e-012 -18.47 1.78137e-012 15.0989 69.5318 2.91876 2.13163e-014 -17.95 1.65992e-013 -5.04675 7.90966 0.329204 -3.43 8.63404e-014 -1.32834e-012 6.69713 -20.6631 -0.0904191 4.33154e-013 -18.47 4.44089e-014 0.89224 30.9823 -3.7684 -4.52185e-013 -17.95 -5.6917e-013 -3.06618 -8.89972 -0.239414 -1.98031e-013 4.57 -2.14167e-012 3.15861 1.06828 -2.241 1.15419e-012 6.57 6.40314e-013 3.0752 0.963067 -1.70448 1.06 4.19 1.76 -2.1966 0.736364 -4.38942 5.81 -1.76141e-013 -2.30036e-012 24.3105 6.10747 -20.7259 -4.65148e-012 -12.08 2.88249e-013 -10.4189 -47.8322 1.93166 2.84217e-014 -9.82 6.39488e-014 13.4368 16.3849 -1.94332 -1.06 4.19 1.76 18.5716 2.62244 9.04754 -6.06 6.55016e-013 -2.76821e-012 -39.6294 28.7429 10.3863 4.94093e-013 -11.08 1.48451e-013 19.2421 -59.5832 13.7365 -7.10543e-015 -9.82 1.77636e-014 -17.4056 10.2588 1.57503 -5.70337e-012 4.05 9.76996e-015 1.55713 11.5062 -1.36484 -5.32907e-015 5.19 -1.77636e-015 -3.54103 0.047139 0.245727 
14.087 38.2036 24.7106 1.95875 -2.50156 92.7699 3.43 2.39919e-013 5.96295e-013 6.12637 -21.707 9.82317 6.60701e-012 -18.47 1.77663e-012 11.5078 66.6062 6.78866 2.13163e-014 -17.95 1.55153e-013 -8.4547 1.40084 0.0840166 -3.43 -5.15164e-014 -1.32765e-012 5.59791 -19.2474 -0.528686 4.35076e-013 -18.47 4.44089e-014 0.41857 32.2079 -1.78352 -5.96914e-013 -17.95 -5.35536e-013 -3.31045 -11.2262 -0.32506 -1.47889e-013 4.57 -2.17222e-012 2.25508 1.36838 -0.863835 1.157e-012 6.57 6.419e-013 2.12251 1.22829 -0.547189 1.06 4.19 1.76 -2.30353 0.743628 -4.38175 5.81 -1.81947e-013 -2.29938e-012 25.2757 9.18669 -21.287 -4.67163e-012 -12.08 3.36253e-014 -10.7508 -47.2832 0.374961 2.84217e-014 -9.82 6.39488e-014 14.0743 16.803 -2.09198 -1.06 4.19 1.76 18.2145 2.57009 8.96502 -6.06 6.48055e-013 -2.77514e-012 -40.3205 25.4496 10.5513 5.39618e-013 -11.08 -1.57929e-014 19.8074 -60.5141 13.7774 -7.10543e-015 -9.82 1.77636e-014 -18.0011 10.357 1.64483 -5.73968e-012 4.05 9.76996e-015 1.70594 11.3824 -1.21643 -5.32907e-015 5.19 -1.77636e-015 -3.30462 0.855702 0.186409 
15.1551 38.1868 24.6512 1.57703 -1.98389 91.8141 3.43 1.99493e-014 5.59681e-013 5.6713 -23.4107 8.94609 6.62228e-012 -18.47 1.77176e-012 7.7276 60.2168 9.20431 2.13163e-014 -17.95 1.44366e-013 -12.1518 -3.96014 -0.398449 -3.43 -2.32203e-013 -1.32157e-012 5.22714 -18.5672 -0.537074 4.36959e-013 -18.47 4.44089e-014 -0.0150281 33.6411 -0.481156 -7.40079e-013 -17.95 -5.0099e-013 -3.33823 -13.5921 -0.397841 -9.51436e-014 4.57 -2.2011e-012 2.05107 1.38103 -0.00199281 1.15972e-012 6.57 6.43442e-013 1.85556 1.23067 0.214665 1.06 4.19 1.76 -2.87428 0.782666 -4.38069 5.81 -1.87579e-013 -2.29829e-012 26.328 12.2599 -21.6413 -4.69041e-012 -12.08 -2.04436e-013 -10.938 -47.1412 0.889983 2.84217e-014 -9.82 6.39488e-014 15.0482 18.19 -2.42087 -1.06 4.19 1.76 17.3165 2.42584 8.67739 -6.06 6.40325e-013 -2.78021e-012 -40.8581 22.172 10.5412 5.83265e-013 -11.08 -1.14242e-013 19.9773 -61.63 14.6348 -7.10543e-015 -9.82 1.77636e-014 -18.0146 10.3365 1.64295 -5.77537e-012 4.05 9.76996e-015 1.2755 11.2322 -0.867638 -5.32907e-015 5.19 -1.77636e-015 -2.8846 1.45583 0.123418 
16.228 38.1378 24.5534 1.61267 -1.31363 91.1431 3.43 -1.7066e-014 5.22637e-013 4.34775 -25.1949 7.50166 6.63718e-012 -18.47 1.76677e-012 5.34662 52.6439 11.1564 2.13163e-014 -17.95 1.33647e-013 -9.99492 -7.36707 -0.643435 -3.43 -2.63012e-013 -1.30985e-012 4.52102 -17.4549 -0.800205 4.38802e-013 -18.47 4.44089e-014 -0.468847 35.1794 1.00893 -8.81686e-013 -17.95 -4.6561e-013 -3.39379 -16.108 -0.480585 -3.97525e-014 4.57 -2.22833e-012 1.47997 1.70848 0.426144 1.16237e-012 6.57 6.44941e-013 1.30043 1.52224 0.555345 1.06 4.19 1.76 -2.64407 0.762745 -4.18071 5.81 -1.93028e-013 -2.29709e-012 26.6273 15.107 -21.361 -4.70783e-012 -12.08 -3.38048e-013 -10.7718 -46.478 0.988242 2.84217e-014 -9.82 6.39488e-014 14.0488 18.1628 -2.25669 -1.06 4.19 1.76 17.8965 2.52446 8.90464 -6.06 6.31836e-013 -2.78344e-012 -42.8389 18.7639 10.2061 6.24819e-013 -11.08 7.87029e-014 20.1993 -62.7462 14.3068 -7.10543e-015 -9.82 1.77636e-014 -18.028 10.1093 1.60698 -5.81042e-012 4.05 9.76996e-015 1.69071 10.9913 -0.566899 -5.32907e-015 5.19 -1.77636e-015 -3.56528 1.68063 0.626852 
17.3089 38.0858 24.4773 1.48641 -0.993616 90.5557 3.43 -1.36807e-014 4.85271e-013 3.1582 -26.8136 5.67551 6.65173e-012 -18.47 1.76165e-012 3.97669 44.1375 11.1635 2.13163e-014 -17.95 1.23014e-013 -6.10781 -6.80558 -0.369763 -3.43 -8.22244e-014 -1.29222e-012 4.10342 -16.2299 -0.983062 4.40605e-013 -18.47 4.44089e-014 -0.823565 36.1462 2.09371 -1.02174e-012 -17.95 -4.29472e-013 -3.49363 -18.3697 -0.564779 2.79876e-014 4.57 -2.25391e-012 1.06742 1.83745 0.765444 1.16494e-012 6.57 6.46396e-013 0.896563 1.63399 0.827428 1.06 4.19 1.76 -2.50524 0.751237 -4.05622 5.81 -1.98283e-013 -2.29578e-012 26.5542 17.8865 -20.5302 -4.72391e-012 -12.08 -4.68459e-013 -10.5541 -45.7534 0.894943 2.84217e-014 -9.82 6.39488e-014 13.9329 17.6182 -2.16932 -1.06 4.19 1.76 18.402 2.60496 9.05591 -6.06 6.22596e-013 -2.78487e-012 -45.2343 14.5544 10.035 6.64062e-013 -11.08 7.66185e-014 21.2526 -62.3542 14.7144 -7.10543e-015 -9.82 1.77636e-014 -18.7117 9.55172 1.57765 -5.84485e-012 4.05 9.76996e-015 1.9051 10.8809 -0.287228 -5.32907e-015 5.19 -1.77636e-015 -3.78745 1.89553 0.930553 
18.4248 38.0268 24.3723 1.55466 -0.542858 89.9292 3.43 9.45966e-015 4.47685e-013 2.06928 -26.9799 3.92051 6.66592e-012 -18.47 1.75641e-012 3.45784 34.3469 10.9638 2.13163e-014 -17.95 1.12485e-013 -3.59067 -2.1137 -0.0770233 -3.43 8.31495e-014 -1.26843e-012 3.47262 -14.6179 -1.3179 4.4237e-013 -18.47 4.44089e-014 -1.16757 36.8455 3.24124 -1.16025e-012 -17.95 -3.92654e-013 -3.52808 -20.5733 -0.640671 1.31055e-013 4.57 -2.27786e-012 0.633625 2.00146 1.18829 1.16744e-012 6.57 6.47808e-013 0.46532 1.77643 1.17315 1.06 4.19 1.76 -2.16137 0.724992 -3.8357 5.81 -2.03335e-013 -2.29437e-012 26.0808 20.2223 -19.7599 -4.73865e-012 -12.08 -5.95693e-013 -10.3587 -44.7827 1.04563 2.84217e-014 -9.82 6.39488e-014 13.1423 18.0424 -2.09655 -1.06 4.19 1.76 18.9063 2.69184 9.23988 -6.06 6.12614e-013 -2.78453e-012 -47.4138 10.9986 9.65636 7.00779e-013 -11.08 3.6047e-014 21.5609 -62.0763 14.9327 -7.10543e-015 -9.82 1.77636e-014 -18.6931 9.70987 1.60198 -5.87866e-012 4.05 9.76996e-015 2.1264 10.9204 -0.0163135 -5.32907e-015 5.19 -1.77636e-015 -3.90748 1.89598 1.19116 
19.5644 37.8984 24.2962 1.39127 -0.736673 89.4677 3.43 4.71092e-014 4.09986e-013 1.79963 -27.0714 2.85545 6.67975e-012 -18.47 1.75104e-012 3.1974 25.193 10.8051 2.13163e-014 -17.95 1.02075e-013 -1.57568 3.63318 0.0588949 -3.43 2.25431e-013 -1.23822e-012 3.46474 -13.1114 -1.39729 4.44095e-013 -18.47 4.44089e-014 -1.36695 37.4818 4.2018 -1.29722e-012 -17.95 -3.55234e-013 -3.73081 -22.8341 -0.75408 1.50371e-013 4.57 -2.30022e-012 0.578219 1.87689 1.51459 1.16985e-012 6.57 6.49176e-013 0.381977 1.6571 1.46143 1.06 4.19 1.76 -1.95507 0.711273 -3.79422 5.81 -2.08173e-013 -2.29284e-012 25.7072 22.5525 -19.2448 -4.75207e-012 -12.08 -7.1977e-013 -10.3751 -44.3859 1.58408 2.84217e-014 -9.82 6.39488e-014 11.7007 18.5643 -1.91421 -1.06 4.19 1.76 19.106 2.73259 9.34573 -6.06 6.01897e-013 -2.78246e-012 -49.1689 8.22231 9.09343 7.34751e-013 -11.08 -2.81571e-014 21.9043 -62.0725 15.5161 -7.10543e-015 -9.82 1.77636e-014 -18.4254 9.56285 1.55451 -5.91185e-012 4.05 9.76996e-015 2.25963 10.9606 0.115709 -5.32907e-015 5.19 -1.77636e-015 -4.3043 2.18328 1.39748 
20.6987 37.7634 24.2033 0.995821 -0.736222 88.6552 3.43 9.40222e-014 3.72277e-013 1.84056 -26.8184 2.58004 6.69323e-012 -18.47 1.74554e-012 2.90323 17.4286 12.943 2.13163e-014 -17.95 9.18038e-014 -1.63105 6.13863 0.0921758 -3.43 2.80831e-013 -1.20134e-012 3.20332 -11.7764 -1.53406 4.45782e-013 -18.47 4.44089e-014 -1.50783 37.8755 5.28689 -1.43266e-012 -17.95 -3.17287e-013 -3.94004 -24.9089 -0.869949 1.40582e-013 4.57 -2.32098e-012 0.400085 1.52399 2.14493 1.17219e-012 6.57 6.50502e-013 0.157992 1.3243 2.00817 1.06 4.19 1.76 -1.78089 0.700662 -3.82333 5.81 -2.12789e-013 -2.29119e-012 25.3435 24.4115 -18.7857 -4.76419e-012 -12.08 -8.40716e-013 -10.3618 -43.8618 1.98976 2.84217e-014 -9.82 6.39488e-014 9.75873 20.1101 -1.73699 -1.06 4.19 1.76 19.5244 2.81195 9.52902 -6.06 5.90455e-013 -2.77868e-012 -50.4645 6.26032 8.10313 7.65762e-013 -11.08 -1.04419e-013 21.7946 -62.0735 15.0072 -7.10543e-015 -9.82 1.77636e-014 -18.7008 9.81807 1.62046 -5.94443e-012 4.05 9.76996e-015 2.64537 11.16 0.116864 -5.32907e-015 5.19 -1.77636e-015 -4.81633 2.47227 1.57908 
21.9032 37.6174 24.0941 0.93884 -1.03116 88.1628 3.43 1.44953e-013 3.34663e-013 2.15275 -26.4219 2.80129 6.70635e-012 -18.47 1.73991e-012 2.60592 11.9823 15.8164 2.13163e-014 -17.95 8.16874e-014 -2.55657 9.68938 0.215193 -3.43 2.40086e-013 -1.15754e-012 3.11752 -9.54923 -1.77397 4.4743e-013 -18.47 4.44089e-014 -1.58429 37.6706 5.53504 -1.56657e-012 -17.95 -2.78892e-013 -3.8179 -26.9915 -0.916697 1.09246e-013 4.57 -2.34018e-012 0.385753 1.39057 2.53395 1.17445e-012 6.57 6.51785e-013 0.107156 1.19473 2.35656 1.06 4.19 1.76 -1.64643 0.691176 -3.74397 5.81 -2.17171e-013 -2.28944e-012 24.8299 26.0415 -18.3673 -4.77502e-012 -12.08 -9.5855e-013 -10.3173 -43.7582 1.98061 2.84217e-014 -9.82 6.39488e-014 9.83785 20.4705 -1.78059 -1.06 4.19 1.76 19.5993 2.82114 9.53114 -6.06 5.78296e-013 -2.77322e-012 -50.6952 4.71504 6.83225 7.93596e-013 -11.08 -1.81164e-013 21.0955 -62.3232 13.9628 -7.10543e-015 -9.82 1.77636e-014 -18.8404 10.3727 1.72561 -5.97639e-012 4.05 9.76996e-015 2.77785 11.1652 0.154095 -5.32907e-015 5.19 -1.77636e-015 -5.00051 2.73091 1.66173 
23.1338 37.4666 23.9852 0.822133 -1.57061 87.9183 3.43 1.94655e-013 2.9725e-013 2.63252 -26.473 3.25141 6.71911e-012 -18.47 1.73415e-012 2.50875 9.43081 19.2003 2.13163e-014 -17.95 7.17433e-014 -2.73152 11.9702 0.285847 -3.43 2.38309e-013 -1.10654e-012 3.43055 -7.05498 -1.73375 4.49039e-013 -18.47 4.44089e-014 -1.85152 36.8358 6.00701 -1.69896e-012 -17.95 -2.40126e-013 -3.64788 -28.7575 -0.935193 6.3923e-014 4.57 -2.35782e-012 0.513218 1.20604 2.71547 1.17664e-012 6.57 6.53026e-013 0.203393 1.02194 2.52989 1.06 4.19 1.76 -1.57041 0.686231 -3.72852 5.81 -2.21311e-013 -2.28757e-012 24.2202 27.0869 -18.1453 -4.78458e-012 -12.08 -1.0733e-012 -10.2674 -43.3574 2.4339 2.84217e-014 -9.82 6.39488e-014 9.89565 20.2221 -1.76921 -1.06 4.19 1.76 19.6486 2.82444 9.51684 -6.06 5.65428e-013 -2.76612e-012 -50.8924 3.40066 6.31308 8.18036e-013 -11.08 -2.46816e-013 21.1896 -62.6961 11.8488 -7.10543e-015 -9.82 1.77636e-014 -19.3005 10.4209 1.77649 -6.00774e-012 4.05 9.76996e-015 2.73158 11.1019 0.206092 -5.32907e-015 5.19 -1.77636e-015 -4.70485 2.91417 1.60286 
